<svg xmlns="http://www.w3.org/2000/svg" viewBox="0 0 23.701 25"><defs><style>.a{fill-rule:evenodd;}</style></defs><path class="a" d="M2.192,3.084c.162,0,.244,0,.325-.081s.244-.081.325-.162A.422.422,0,0,0,3,2.516c0-.081.081-.244.081-.325,0-.162,0-.244-.081-.325a1.121,1.121,0,0,0-.244-.325L2.516,1.3H2.192c-.162,0-.244,0-.325.081a.422.422,0,0,0-.325.162h0a1.121,1.121,0,0,0-.244.325c0,.081-.081.244-.081.325,0,.162,0,.244.081.325s.081.244.162.325h0c.162.081.244.081.325.162.162,0,.244.081.406.081ZM18.019,23.7a1.381,1.381,0,0,0,.568-.081,1.7,1.7,0,0,0,.487-.325h0a1.7,1.7,0,0,0,.325-.487,1.2,1.2,0,0,0,.081-.568,1.381,1.381,0,0,0-.081-.568,1.492,1.492,0,0,0-.812-.812,1.2,1.2,0,0,0-.568-.081,1.381,1.381,0,0,0-.568.081,1.7,1.7,0,0,0-.487.325,1.771,1.771,0,0,0-.325.406v.081a1.03,1.03,0,0,0-.081.487,1.381,1.381,0,0,0,.081.568,1.7,1.7,0,0,0,.325.487h0c.162.081.244.244.406.244a1.3,1.3,0,0,0,.649.244Zm1.055,1.055A2.247,2.247,0,0,1,18.019,25a2.5,2.5,0,0,1-1.055-.244,2.915,2.915,0,0,1-.812-.568h0a3.352,3.352,0,0,1-.568-.893,2.247,2.247,0,0,1-.244-1.055v-.162H8.36v.162A2.5,2.5,0,0,1,8.117,23.3a3.352,3.352,0,0,1-.568.893h0a3.352,3.352,0,0,1-.893.568A2.247,2.247,0,0,1,5.6,25a2.5,2.5,0,0,1-1.055-.244,2.915,2.915,0,0,1-.812-.568h0a3.352,3.352,0,0,1-.568-.893,2.247,2.247,0,0,1-.244-1.055,2.5,2.5,0,0,1,.244-1.055,3.352,3.352,0,0,1,.568-.893,4.5,4.5,0,0,1,.649-.487L4.14,16.64v-.081l-.974-12.5A.283.283,0,0,1,3,4.14a1.463,1.463,0,0,1-.812.162A2.4,2.4,0,0,1,1.38,4.14a2.128,2.128,0,0,1-.731-.406H.568A3.29,3.29,0,0,1,.162,3,2.884,2.884,0,0,1,0,2.192,2.884,2.884,0,0,1,.162,1.38,1.917,1.917,0,0,1,.649.649h0A1.262,1.262,0,0,1,1.3.162,3.452,3.452,0,0,1,2.192,0,2.4,2.4,0,0,1,3,.162a1.262,1.262,0,0,1,.649.487h0A1.262,1.262,0,0,1,4.14,1.3,2.4,2.4,0,0,1,4.3,2.11l.244,3.409,9.091.568h.081l9.578.568h0a.3.3,0,0,1,.244.081h0l.081.081h0a.3.3,0,0,1,.081.244h0v.081h0v.081l-1.218,6.494a3.7,3.7,0,0,1-1.38,2.354,4.194,4.194,0,0,1-2.6.893H5.357l.325,2.6a2.161,2.161,0,0,1,.974.244,3.352,3.352,0,0,1,.893.568c.162.162.244.325.406.487h7.792a2.152,2.152,0,0,1,.406-.487,3.352,3.352,0,0,1,.893-.568,2.247,2.247,0,0,1,1.055-.244,2.5,2.5,0,0,1,1.055.244,3.352,3.352,0,0,1,.893.568,3.352,3.352,0,0,1,.568.893,2.247,2.247,0,0,1,.244,1.055,2.5,2.5,0,0,1-.244,1.055,3.352,3.352,0,0,1-.568.893h0a10.87,10.87,0,0,0-.974.487ZM5.682,23.7a1.381,1.381,0,0,0,.568-.081,1.7,1.7,0,0,0,.487-.325h0a1.7,1.7,0,0,0,.325-.487,1.2,1.2,0,0,0,.081-.568,1.029,1.029,0,0,0-.081-.487v-.081a.81.81,0,0,0-.325-.406,1.7,1.7,0,0,0-.487-.325,1.2,1.2,0,0,0-.568-.081,1.2,1.2,0,0,0-.568.081,1.492,1.492,0,0,0-.812.812,1.2,1.2,0,0,0-.081.568,1.381,1.381,0,0,0,.081.568,1.7,1.7,0,0,0,.325.487h0a.87.87,0,0,1,.487.162,1.5,1.5,0,0,0,.568.162ZM4.708,6.818l.731,9.172h3L8.36,7.062,4.708,6.818Zm4.87.325L9.74,15.99h3.328v-8.6l-3.49-.244Zm4.708.325V15.99h3.328l.081-3.977c0-1.461,0-2.841.081-4.3l-3.49-.244Zm4.627,8.523a2.218,2.218,0,0,0,1.542-.649,3.034,3.034,0,0,0,.974-1.623l1.136-5.763-3.571-.244c0,1.461,0,2.841-.081,4.221Z"/></svg>