<svg xmlns="http://www.w3.org/2000/svg" viewBox="0 0 78.747 14.842"><defs><style>.a{fill:#e40521;}</style></defs><path class="a" d="M30.836,2.868h2.172v.744A3.373,3.373,0,0,1,35.4,2.688a2.911,2.911,0,0,1,2.94,3.12v4.931h-2.3V6.419c0-1.056-.516-1.692-1.452-1.692-.912,0-1.452.588-1.452,1.692v4.319H30.836ZM55.013,6.8a1.944,1.944,0,1,1,3.888,0,1.944,1.944,0,1,1-3.888,0Zm-2.268,0a4.2,4.2,0,1,0,4.2-4.116A4.126,4.126,0,0,0,52.746,6.8Zm-29.313,0a1.944,1.944,0,1,1,3.888,0,1.944,1.944,0,1,1-3.888,0Zm-2.268,0a4.2,4.2,0,1,0,4.2-4.116A4.126,4.126,0,0,0,21.165,6.8ZM72.291,2.868h2.328v7.871H72.291Zm0-2.868h2.328V2H72.291Zm4.128,0h2.328V10.739H76.419ZM68.572,6.8a1.968,1.968,0,1,1-1.956-1.968A1.929,1.929,0,0,1,68.572,6.8ZM64.7,10.739l.024-.6a3.579,3.579,0,0,0,2.388.78A4.025,4.025,0,0,0,70.936,6.8a3.941,3.941,0,0,0-3.792-4.116,3.436,3.436,0,0,0-2.412.8V0H62.5V10.739Zm-54.39,0,2.424-3.12,1.512,1.524-3.456,4.331H13.5l2.22-2.868,4.164,4.235h3.264L17.158,8.819l4.715-5.963H19.162L15.67,7.331l-1.512-1.5L18.034.948h-2.7L12.682,4.355l-1.44-1.488H8.027l3.24,3.276-3.66,4.6ZM0,0H7.067V2H2.412V4.235H6.863V6.179H2.412V8.747H7.079v2H0ZM40.183,0h3.8l1.8,7.835h.084L47.706,0h3.7V10.739H49.134V2.628h-.108l-1.992,8.111H44.491L42.547,2.628h-.108v8.111H40.171V0Z"/></svg>