<svg xmlns="http://www.w3.org/2000/svg" viewBox="0 0 230.413 72"><defs><style>.a,.b{fill-rule:evenodd;}.b{fill:#fd0;}</style></defs><g transform="translate(-275 -100)"><path class="a" d="M99.87,60.58c-2.15-.159-2.23,2.469-4.062,2.628h-.319l.717-2.469H95.012L93.1,67.27h1.195l.956-3.106h.319c1.115.08.956.8,1.434,1.832a2.1,2.1,0,0,0,1.513,1.434l.319-.956c-.239-.08-.637-.239-.956-1.354-.159-.558-.319-1.195-.956-1.434.876-.08,1.274-.717,1.832-1.354.558-.558.717-.8,1.035-.8l.08-.956Zm12.345,4.062c0,1.354.478,2.788,2.549,2.788a4.182,4.182,0,0,0,3.982-4.381A2.415,2.415,0,0,0,116.2,60.5a4.167,4.167,0,0,0-3.982,4.142Zm1.115.319c0-1.513,1.115-3.425,2.788-3.425a1.414,1.414,0,0,1,1.434,1.434c0,1.513-1.115,3.5-2.708,3.5a1.453,1.453,0,0,1-1.513-1.513Zm22.3-.558V60.739h-1.673l-1.593,3.823c-.558,1.274-1.035,1.832-1.752,1.912l-.319.956c1.832,0,2.389-.956,3.186-2.628l1.195-2.708v4.54h.637l3.5-4.54-1.593,5.177h1.195l1.991-6.531h-1.832L135.631,64.4Zm17.681,2.867,1.354-4.54c.478-.4,1.434-1.195,2.071-1.195.159,0,.717,0,.717.8a1.9,1.9,0,0,1-.159.717l-1.274,4.3h1.195l1.195-3.982a5.919,5.919,0,0,0,.239-1.434,1.344,1.344,0,0,0-1.513-1.354,3.134,3.134,0,0,0-2.15,1.115l.319-.956h-1.195l-1.991,6.531Zm23.655-5.655a1.6,1.6,0,0,0-1.673-1.035c-2.23,0-3.823,2.788-3.823,4.619a1.994,1.994,0,0,0,1.991,2.23,2.81,2.81,0,0,0,2.15-1.035l-.239.876h1.195l1.912-6.531h-1.195l-.319.876Zm-4.3,3.584c0-1.354,1.195-3.584,2.549-3.584a1.127,1.127,0,0,1,1.195,1.195c0,1.115-1.195,3.5-2.628,3.5a1.127,1.127,0,0,1-1.115-1.115Zm20.071-1.991.8-2.549h-1.195l-1.991,6.531h1.195l.956-3.027h2.788l-.956,3.027h1.195l1.991-6.531h-1.195l-.717,2.549Zm22.381-2.469-.8,2.628c-.717,2.389-2.071,3.106-2.788,3.106-.4,0-.637-.159-.637-.8a1.9,1.9,0,0,1,.159-.717l1.274-4.3h-1.195l-1.195,3.982a5.58,5.58,0,0,0-.239,1.115v.558a1.338,1.338,0,0,0,1.434,1.115,3.033,3.033,0,0,0,2.23-1.115l-.319.956h1.195l1.991-6.531h-1.115Zm12.5,6.69h.159a3.846,3.846,0,0,0,2.469-1.354c1.274-1.274,1.274-1.274,2.071-1.274h.4l-.8,2.469h1.195l1.991-6.531H232.4c-1.673,0-2.867.8-2.867,2.15a1.542,1.542,0,0,0,1.195,1.593c-.558,0-.876.4-1.274.876-.8.876-1.035,1.195-1.434,1.195l-.4.876Zm6.053-5.735-.637,2.071h-.956c-.4,0-1.354,0-1.354-.956,0-1.195,1.593-1.195,1.991-1.195h.956Z" transform="translate(256.048 87.686)"/><path class="a" d="M130.133,19.562h-9.558L121.69,15.5h-2.15c-2.867,0-5.416.717-6.212,4.062h-4.381c-3.664,0-5.336,1.195-6.133,4.062L97,44.252h9.558l-1.115,4.062h2.15c2.788,0,5.257-.717,6.133-3.743,0-.08.08-.239.08-.319h4.46c3.584,0,5.416-1.195,6.212-4.062l5.655-20.628ZM114.6,40.987l5.177-18.319h.956a1.037,1.037,0,0,1,.956,1.434l-4.3,15.372a1.866,1.866,0,0,1-1.752,1.434H114.6Zm-7.248,0H106.4c-1.354,0-.956-1.195-.876-1.434l4.3-15.372a1.683,1.683,0,0,1,1.752-1.434h.956l-5.177,18.239Zm17.6,6.133L135.31,22.19c1.035-2.389,2.071-4.062,6.212-4.062h6.85l-3.9,24.929c-.558,3.345-3.186,4.062-6.212,4.062h-1.434l1.434-7.726h-3.425l-1.354,3.664c-.956,2.389-1.912,4.062-6.212,4.062h-2.31Zm11.071-10.912h2.867l2.788-14.575h-.4l-5.257,14.575Zm10.035,10.912H157.77c3.584,0,5.416-1.195,6.212-4.062l3.106-10.912h-5.1l.08-.319c4.062.08,5.575-1.752,6.212-4.062l2.708-9.717H159.283c-3.584,0-5.416,1.195-6.212,4.062l-7.009,25.009Zm8.124-3.186,2.867-10.195h.956c.478,0,1.274.239.956,1.434l-2.071,7.248a1.866,1.866,0,0,1-1.752,1.434h-.956Zm3.743-13.381,2.549-9.319h.956c.637,0,1.274.4.956,1.434l-1.832,6.372a1.775,1.775,0,0,1-1.752,1.434h-.876Zm8.442,16.566,7.009-24.929c.8-2.867,2.628-4.062,6.212-4.062H191.3l-7.009,24.929c-.8,2.867-2.628,4.062-6.212,4.062ZM177.044,42.9l5.894-20.708c.159-.478-.239-.956-.876-.956a1.613,1.613,0,0,0-1.434.956l-5.814,20.628c-.159.637.319.956.876.956.08.159,1.035.159,1.354-.876Zm9.637,4.221h2.15c3.584,0,5.416-1.195,6.212-4.062l1.673-5.814h4.46c3.5,0,5.336-1.195,6.133-4.062l4.3-15.133H199.9c-3.584,0-5.416,1.195-6.212,4.062l-7.009,25.009Zm10.911-13.062,3.584-12.743h.956c.637,0,1.274.4.956,1.434l-2.867,9.876a1.775,1.775,0,0,1-1.752,1.434Zm8.761,13.062,7.009-24.929c.8-2.867,2.628-4.062,6.212-4.062h2.15l-4.062,14.5h.239L223,22.19c1.195-2.389,2.31-4.062,6.212-4.062h3.027L225.23,43.058c-.8,2.867-2.628,4.062-6.212,4.062h-2.15l4.062-14.5h-.239l-5.1,10.434c-1.195,2.389-2.31,4.062-6.212,4.062Zm23.575,0h2.15c3.584,0,5.416-1.195,6.212-4.062l6.053-21.743h1.274a4.417,4.417,0,0,0,4.54-3.186h-13.38a4.417,4.417,0,0,0-4.54,3.186H237.1Z" transform="translate(255.254 96.845)"/><path class="b" d="M48.664,0C60.054,0,68.576,5.257,72.638,13.54,56.868,7.805,36.319,8.522,13.779,23.735c-10.832,7.248-.159,16.885,9,10.513,4.54-3.106,6.77-5.814,11.788-8.442-6.053,5.018-9.8,9.8-14.1,18.478a44.734,44.734,0,0,0-7.726,7.248c-2.31,2.469-1.035,3.425,1.274,1.912a22.8,22.8,0,0,1,3.345-1.912,87.019,87.019,0,0,0-3.982,13.7,13.252,13.252,0,0,0-.319,3.823C2.151,63.478-2.867,50.814,1.673,36.08,7.726,16.088,28.753,0,48.664,0ZM74.151,17.442c-19.513-2.389-29.31,3.664-38.788,20.628,5.575-1.195,11.628-.8,18.8.159,10.274,1.354,5.018,12.027-3.982,9.08-5.416-1.832-12.345-1.832-19.035-.558a51.616,51.616,0,0,0-3.9,16.487,12.236,12.236,0,0,1-3.743,8.6c1.035.08,2.071.159,3.186.159C46.594,72,67.62,55.912,73.673,36A32.935,32.935,0,0,0,74.151,17.442Z" transform="translate(274.997 100)"/><path class="a" d="M29.594,65.853a49.581,49.581,0,0,1,3.9-16.487c6.69-1.274,13.619-1.195,19.035.558,9,2.947,14.257-7.726,3.982-9.08-7.168-.956-13.221-1.354-18.8-.159C47.2,23.721,57.072,17.667,76.505,20.057a20.882,20.882,0,0,0-1.513-3.9c-15.77-5.735-36.319-5.018-58.858,10.195-10.832,7.248-.159,16.885,9,10.513,4.54-3.106,6.77-5.814,11.788-8.442-6.053,5.018-9.8,9.8-14.1,18.478A44.734,44.734,0,0,0,15.1,54.145c-2.31,2.469-1.035,3.425,1.274,1.911a22.8,22.8,0,0,1,3.345-1.911,87.019,87.019,0,0,0-3.982,13.7,13.252,13.252,0,0,0-.319,3.823A28.419,28.419,0,0,0,25.85,74.535,12.6,12.6,0,0,0,29.594,65.853Z" transform="translate(272.643 97.386)"/></g></svg>